HIERARCHY
ROOT hip
{
  OFFSET 0 0 0
  CHANNELS 6 Xposition Yposition Zposition Zrotation Yrotation Xrotation
  JOINT abdomen
  {
    OFFSET 0 20.6881 -0.73152
    CHANNELS 3 Zrotation Xrotation Yrotation
    JOINT chest
    {
      OFFSET 0 11.7043 -0.48768
      CHANNELS 3 Zrotation Xrotation Yrotation
      JOINT neck
      {
        OFFSET 0 22.1894 -2.19456
        CHANNELS 3 Zrotation Xrotation Yrotation
        JOINT head
        {
          OFFSET -0.24384 7.07133 1.2192
          CHANNELS 3 Zrotation Xrotation Yrotation
          JOINT leftEye
          {
            OFFSET 4.14528 8.04674 8.04672
            CHANNELS 3 Zrotation Xrotation Yrotation
            End Site
            {
              OFFSET 1 0 0
            }
          }
          JOINT rightEye
          {
            OFFSET -3.6576 8.04674 8.04672
            CHANNELS 3 Zrotation Xrotation Yrotation
            End Site
            {
              OFFSET 1 0 0
            }
          }
        }
      }
      JOINT rCollar
      {
        OFFSET -2.68224 19.2634 -4.8768
        CHANNELS 3 Zrotation Xrotation Yrotation
        JOINT rShldr
        {
          OFFSET -8.77824 -1.95073 1.46304
          CHANNELS 3 Zrotation Xrotation Yrotation
          JOINT rForeArm
          {
            OFFSET -28.1742 -1.7115 0.48768
            CHANNELS 3 Zrotation Xrotation Yrotation
            JOINT rHand
            {
              OFFSET -22.5879 0.773209 7.07136
              CHANNELS 3 Zrotation Xrotation Yrotation
              JOINT rThumb1
              {
                OFFSET -1.2192 -0.487915 3.41376
                CHANNELS 3 Zrotation Xrotation Yrotation
                JOINT rThumb2
                {
                  OFFSET -3.37035 -0.52449 3.41376
                  CHANNELS 3 Zrotation Xrotation Yrotation
                  End Site
                  {
                    OFFSET -1.78271 -1.18214 1.43049
                  }
                }
              }
              JOINT rIndex1
              {
                OFFSET -7.75947 0.938293 5.60832
                CHANNELS 3 Zrotation Xrotation Yrotation
                JOINT rIndex2
                {
                  OFFSET -2.54057 -0.884171 1.56538
                  CHANNELS 3 Zrotation Xrotation Yrotation
                  End Site
                  {
                    OFFSET -1.62519 -0.234802 1.16502
                  }
                }
              }
              JOINT rMid1
              {
                OFFSET -8.24714 1.18213 3.41376
                CHANNELS 3 Zrotation Xrotation Yrotation
                JOINT rMid2
                {
                  OFFSET -3.10165 -0.590103 1.0647
                  CHANNELS 3 Zrotation Xrotation Yrotation
                  End Site
                  {
                    OFFSET -2.48547 -0.328903 0.83742
                  }
                }
              }
              JOINT rRing1
              {
                OFFSET -8.82822 0.546677 1.51678
                CHANNELS 3 Zrotation Xrotation Yrotation
                JOINT rRing2
                {
                  OFFSET -2.60934 -0.819778 -0.0198488
                  CHANNELS 3 Zrotation Xrotation Yrotation
                  End Site
                  {
                    OFFSET -2.33842 -0.294052 0.168128
                  }
                }
              }
              JOINT rPinky1
              {
                OFFSET -8.27202 -0.0477905 -0.4584
                CHANNELS 3 Zrotation Xrotation Yrotation
                JOINT rPinky2
                {
                  OFFSET -1.82734 -0.647385 -0.700984
                  CHANNELS 3 Zrotation Xrotation Yrotation
                  End Site
                  {
                    OFFSET -1.69225 -0.51767 -0.607171
                  }
                }
              }
            }
          }
        }
      }
      JOINT lCollar
      {
        OFFSET 2.68224 19.2634 -4.8768
        CHANNELS 3 Zrotation Xrotation Yrotation
        JOINT lShldr
        {
          OFFSET 8.77824 -1.95073 1.46304
          CHANNELS 3 Zrotation Xrotation Yrotation
          JOINT lForeArm
          {
            OFFSET 28.1742 -1.7115 0.48768
            CHANNELS 3 Zrotation Xrotation Yrotation
            JOINT lHand
            {
              OFFSET 22.5879 0.773209 7.07136
              CHANNELS 3 Zrotation Xrotation Yrotation
              JOINT lThumb1
              {
                OFFSET 1.2192 -0.487915 3.41376
                CHANNELS 3 Zrotation Xrotation Yrotation
                JOINT lThumb2
                {
                  OFFSET 3.37035 -0.52449 3.41376
                  CHANNELS 3 Zrotation Xrotation Yrotation
                  End Site
                  {
                    OFFSET 1.78271 -1.18214 1.43049
                  }
                }
              }
              JOINT lIndex1
              {
                OFFSET 7.75947 0.938293 5.60832
                CHANNELS 3 Zrotation Xrotation Yrotation
                JOINT lIndex2
                {
                  OFFSET 2.54057 -0.884171 1.56538
                  CHANNELS 3 Zrotation Xrotation Yrotation
                  End Site
                  {
                    OFFSET 1.62519 -0.234802 1.16502
                  }
                }
              }
              JOINT lMid1
              {
                OFFSET 8.24714 1.18213 3.41376
                CHANNELS 3 Zrotation Xrotation Yrotation
                JOINT lMid2
                {
                  OFFSET 3.10165 -0.590103 1.0647
                  CHANNELS 3 Zrotation Xrotation Yrotation
                  End Site
                  {
                    OFFSET 2.48547 -0.328903 0.83742
                  }
                }
              }
              JOINT lRing1
              {
                OFFSET 8.82822 0.546677 1.51678
                CHANNELS 3 Zrotation Xrotation Yrotation
                JOINT lRing2
                {
                  OFFSET 2.60934 -0.819778 -0.0198488
                  CHANNELS 3 Zrotation Xrotation Yrotation
                  End Site
                  {
                    OFFSET 2.33842 -0.294052 0.168128
                  }
                }
              }
              JOINT lPinky1
              {
                OFFSET 8.27202 -0.0477905 -0.4584
                CHANNELS 3 Zrotation Xrotation Yrotation
                JOINT lPinky2
                {
                  OFFSET 1.82734 -0.647385 -0.700984
                  CHANNELS 3 Zrotation Xrotation Yrotation
                  End Site
                  {
                    OFFSET 1.69225 -0.51767 -0.607171
                  }
                }
              }
            }
          }
        }
      }
    }
  }
  JOINT rButtock
  {
    OFFSET -8.77824 4.35084 1.2192
    CHANNELS 3 Zrotation Xrotation Yrotation
    JOINT rThigh
    {
      OFFSET 0 -1.70687 -2.19456
      CHANNELS 3 Zrotation Xrotation Yrotation
      JOINT rShin
      {
        OFFSET 0 -36.8199 0.73152
        CHANNELS 3 Zrotation Xrotation Yrotation
        JOINT rFoot
        {
          OFFSET 0.73152 -45.1104 -5.12064
          CHANNELS 3 Zrotation Xrotation Yrotation
          End Site
          {
            OFFSET -1.1221 -3.69964 12.103
          }
        }
      }
    }
  }
  JOINT lButtock
  {
    OFFSET 8.77824 4.35084 1.2192
    CHANNELS 3 Zrotation Xrotation Yrotation
    JOINT lThigh
    {
      OFFSET 0 -1.70687 -2.19456
      CHANNELS 3 Zrotation Xrotation Yrotation
      JOINT lShin
      {
        OFFSET 0 -36.8199 0.73152
        CHANNELS 3 Zrotation Xrotation Yrotation
        JOINT lFoot
        {
          OFFSET -0.73152 -45.1104 -5.12064
          CHANNELS 3 Zrotation Xrotation Yrotation
          End Site
          {
            OFFSET 1.1221 -3.69964 12.103
          }
        }
      }
    }
  }
}
MOTION
Frames:	4
Frame Time:	0.03333
1.4077679588808678 50.42499899864197 81.83600020129234 -13.967500357376064 -29.928498999499777 9.793099618754894 6.213470045511143 12.131299621666516 5.240139914254 1.2510699554587799 -8.40009022149361 1.3608499851628082 -0.6333740071841547 11.274500201612607 6.765560212538798 5.509409876997998 -22.186699848891056 14.525500345583072 -0.0 0.0 0.0 -0.0 0.0 0.0 2.3125099992604518e-14 6.360639821506392e-14 3.4041901017316347e-13 108.06099659466202 47.073899401254245 -55.73160130635229 -27.063499312509766 -43.842799867204256 91.13300111418906 -9.546620289723938 -62.507603170584744 -15.668100493719702 -8.916559815142387e-10 2.465690030703095e-09 5.600670047174252e-10 -1.5601299562218376e-09 4.2230200425386975e-09 9.27922952015963e-10 -8.916460422808591e-10 2.465680091469716e-09 5.600510025516841e-10 7.730910121524428 5.474879855648998 0.41731399283890674 -8.916579693609146e-10 2.465690030703095e-09 5.600640229474114e-10 2.90554006136521 0.9651829962377875 0.10290200252939893 -8.916500179742109e-10 2.465680091469716e-09 5.600689925641011e-10 10.278599710243157 0.7318009818271524 0.025912300303053633 -8.916630383699381e-10 2.465690030703095e-09 5.600769936469717e-10 2.221669932038622 -0.7334870246959406 -0.20891999872313852 2.3044099547723897e-14 6.361540079217286e-14 3.4022000711421355e-13 -63.69580336916767 -23.374900047473986 -78.35300000723234 7.567619935263286 -2.7892300506495324 -13.312499730123827 9.350639964321468 62.180901562204696 -15.446800657063998 3.138499995972533e-09 3.8373598967911625e-09 -2.076679965737309e-09 5.277930118943774e-09 8.131989730413676e-09 -3.728390117710871e-09 3.1384900567391534e-09 3.8373598967911625e-09 -2.0766700265039298e-09 -7.730910121524428 5.474879855648998 -0.41731399283890674 3.138499995972533e-09 3.837349957557783e-09 -2.076679965737309e-09 -2.90554006136521 0.9651829962377875 -0.10290200252939893 3.1384900567391534e-09 3.8373598967911625e-09 -2.0766700265039298e-09 -10.278599710243157 0.7318009818271524 -0.025912300303053633 3.138499995972533e-09 3.837369836024542e-09 -2.0766700265039298e-09 -2.221669932038622 -0.7334870246959406 0.20891999872313852 -2.0321699793705798e-16 0.0 -3.882510030490358e-19 -15.765500698831376 0.49705100859181073 -3.5337599437686498 -0.15274900323662968 47.15400044474557 2.838659916229503 -10.659599614977514 -18.991400751375693 -33.209499895625875 2.0321699793705798e-16 0.0 3.882510030490358e-19 71.92719901721937 -55.58150106915209 59.446797328016096 1.7224399863798716 66.0641031619779 -1.5813199538343572 -0.7003079934204286 8.551990213540108 -7.267849762780597
1.4670709599158727 50.32489895820618 82.43300018366426 -14.428600451828101 -29.5518994441382 10.573300174814404 6.795029917486464 11.680999763839562 5.1962999181794505 1.3498700291851895 -8.408109717352852 1.3699299746123996 -0.6151219808137353 11.399600238903268 6.723510152913614 5.424370179849931 -22.242799607638958 14.422000781542577 -0.0 0.0 0.0 -0.0 0.0 0.0 -1.5045200590751615e-14 8.214829772771774e-14 -1.957280014745068e-13 108.18100301837914 47.216401053002805 -55.92110148977971 -27.09370070147227 -43.756899993107595 90.96629668711655 -9.563579649433079 -62.535402040506696 -15.68719941018635 1.2455200227188487e-09 -2.1450100085905335e-09 -9.442669901132085e-11 2.1449199591361144e-09 -3.578910011222113e-09 -9.850349921470395e-11 1.2455299619522283e-09 -2.1450100085905335e-09 -9.444660232616344e-11 7.730910121524428 5.474879855648998 0.41731399283890674 1.2455099840931354e-09 -2.1450000693571537e-09 -9.442950063272971e-11 2.90554006136521 0.9651829962377875 0.10290200252939893 1.2455200227188487e-09 -2.1450000693571537e-09 -9.442720218501068e-11 10.278599710243157 0.7318009818271524 0.025912300303053633 1.2455099840931354e-09 -2.1450000693571537e-09 -9.442149954985916e-11 2.221669932038622 -0.7334870246959406 -0.20891999872313852 -1.5171000079638465e-14 8.214659912826323e-14 -1.959490013963927e-13 -64.40599960887643 -23.376300236253837 -78.76940248998217 7.519280125186167 -2.7648099899326213 -13.224700209664253 10.583199680242691 64.12719811714568 -16.83110070935987 5.185559952923042e-10 -9.840459663663299e-09 9.829180224054824e-10 9.513980297658425e-10 -1.6890399247005636e-08 1.6597999921981977e-09 5.1855798313898e-10 -9.840450121999256e-09 9.82927961638862e-10 -7.730910121524428 5.474879855648998 -0.41731399283890674 5.1855798313898e-10 -9.840450121999256e-09 9.829160345588064e-10 -2.90554006136521 0.9651829962377875 -0.10290200252939893 5.185509759794474e-10 -9.840450121999256e-09 9.829200102521584e-10 -10.278599710243157 0.7318009818271524 -0.025912300303053633 5.1855798313898e-10 -9.840450121999256e-09 9.829180224054824e-10 -2.221669932038622 -0.7334870246959406 0.20891999872313852 -2.0321699793705798e-16 0.0 -3.882510030490358e-19 -15.630599340081748 1.5383000073470319 -3.8569600129820105 -0.11573799571290241 45.176500170581384 2.7693599631369077 -10.073799903074908 -18.593099977473692 -32.545100074302056 2.0321699793705798e-16 0.0 3.882510030490358e-19 73.93470089731284 -55.599399579872106 61.775400061370206 1.844420014602012 67.08760017891514 -1.6888400446967575 -0.7133509866925084 7.753589764663455 -7.8634695791623885
1.5088829604792409 50.252699851989746 82.96900016721338 -14.815600677748316 -29.223900099815847 11.1931996061483 7.305250171128294 11.28630020717745 5.119280143777448 1.4019600400034686 -8.41554010939618 1.364429964783247 -0.6028120055778153 11.50190025097078 6.694329877232027 5.386779806865943 -22.29049994125503 14.354499729522633 -0.0 0.0 0.0 -0.0 0.0 0.0 2.4308400866218955e-15 1.1212099506666288e-13 -7.346579984684576e-13 108.1649998851538 47.16360027562402 -56.02120132716083 -27.096999682841385 -43.75019957753181 90.95040283691793 -9.641430145592885 -62.66270310625739 -15.774900746676607 2.8893299750406563e-09 -6.046500025778048e-09 -7.765799847110389e-10 5.003220045135077e-09 -1.0212999623780462e-08 -1.1993699755061456e-09 2.8893399142740357e-09 -6.046500025778048e-09 -7.766020001129747e-10 7.730910121524428 5.474879855648998 0.41731399283890674 2.8893299750406563e-09 -6.046490086544668e-09 -7.765830161772197e-10 2.90554006136521 0.9651829962377875 0.10290200252939893 2.8893399142740357e-09 -6.046490086544668e-09 -7.765830161772197e-10 10.278599710243157 0.7318009818271524 0.025912300303053633 2.8893299750406563e-09 -6.046490086544668e-09 -7.765799847110389e-10 2.221669932038622 -0.7334870246959406 -0.20891999872313852 2.290530084403836e-15 1.1210800078083583e-13 -7.349070131484898e-13 -65.34219997803173 -23.48959941420601 -79.25560267586036 7.460040186967355 -2.7350399701048858 -13.11709997080081 12.658200051035164 66.76580264635915 -19.108999533410387 -2.4049100283096627e-09 -2.2301799752879685e-08 4.020879889758283e-09 -3.8975399670578044e-09 -3.992549973585685e-08 7.029700123626842e-09 -2.404900089076283e-09 -2.2301799752879685e-08 4.020889828991663e-09 -7.730910121524428 5.474879855648998 -0.41731399283890674 -2.404900089076283e-09 -2.2301799752879685e-08 4.020869950524904e-09 -2.90554006136521 0.9651829962377875 -0.10290200252939893 -2.4049100283096627e-09 -2.2301799752879685e-08 4.020869950524904e-09 -10.278599710243157 0.7318009818271524 -0.025912300303053633 -2.404900089076283e-09 -2.2301799752879685e-08 4.020860011291524e-09 -2.221669932038622 -0.7334870246959406 0.20891999872313852 -2.0321699793705798e-16 0.0 -3.882510030490358e-19 -15.384299303516503 2.54635001786776 -4.0385499835769085 -0.08446430040123959 43.28050112868837 2.7030300751162097 -9.566199880753425 -18.187099872829794 -32.01660052689398 2.0321699793705798e-16 0.0 3.882510030490358e-19 75.65299890756962 -55.66630128279238 63.718998691589036 1.9577100144874864 67.9649994495058 -1.791369935318523 -0.7353089776570415 7.0865201931478055 -8.304090205161788
1.5320301608880982 50.214701890945435 83.44800018239766 -15.120399577007428 -28.99079940382165 11.710199676315012 7.6633202770452735 11.012699904499664 5.020829797080884 1.3921599992049698 -8.416100184908121 1.3469299529126164 -0.6012650210916604 11.564800316811073 6.675899892417218 5.556469880379385 -22.335099368987922 14.352300408609889 -0.0 0.0 0.0 -0.0 0.0 0.0 1.9804200351139526e-13 2.200629986924972e-13 -3.5515700540310575e-13 107.90099941335447 47.03180153030487 -55.91270035710059 -27.097600739488346 -43.74849886042848 90.94700140271127 -9.778230296931778 -62.88320210323291 -15.928800276602626 9.010469667805949e-10 -2.097809980763612e-09 -3.3800999488893584e-10 1.563490013458136e-09 -3.5656701572218507e-09 -5.441020117091516e-10 9.010510418662805e-10 -2.097809980763612e-09 -3.3802800974943634e-10 7.730910121524428 5.474879855648998 0.41731399283890674 9.01043985010581e-10 -2.097809980763612e-09 -3.3801600812513046e-10 2.90554006136521 0.9651829962377875 0.10290200252939893 9.010520357896184e-10 -2.097809980763612e-09 -3.3801600812513046e-10 10.278599710243157 0.7318009818271524 0.025912300303053633 9.010419971639051e-10 -2.097809980763612e-09 -3.3801399543037113e-10 2.221669932038622 -0.7334870246959406 -0.20891999872313852 1.9801800472767358e-13 2.2004700759191823e-13 -3.554080098710704e-13 -66.27700015840719 -23.703799269219488 -79.77949867576784 7.375329619559918 -2.6926900224864565 -12.963199587101144 13.745800100880267 67.93099876781747 -20.28680076898197 -1.5655000246244873e-09 -1.1774299725948076e-08 2.2423399514600068e-09 -2.5574299499352288e-09 -2.1196599938559313e-08 3.9413199046788145e-09 -1.5655000246244873e-09 -1.1774299725948076e-08 2.242350089478054e-09 -7.730910121524428 5.474879855648998 -0.41731399283890674 -1.5655000246244873e-09 -1.1774299725948076e-08 2.2423399514600068e-09 -2.90554006136521 0.9651829962377875 -0.10290200252939893 -1.5655099638578667e-09 -1.1774299725948076e-08 2.2423399514600068e-09 -10.278599710243157 0.7318009818271524 -0.025912300303053633 -1.5654899859987738e-09 -1.1774299725948076e-08 2.2423300122266274e-09 -2.221669932038622 -0.7334870246959406 0.20891999872313852 -2.0321699793705798e-16 0.0 -3.882510030490358e-19 -15.123700265923837 3.5552300030943504 -4.013510083192818 -0.05722149725715532 41.42379958018503 2.6364899453351223 -9.102739955943148 -17.71430051810317 -31.634601706993507 2.0321699793705798e-16 0.0 3.882510030490358e-19 76.96550171885761 -55.68380022744596 65.22149687501927 2.063630026815105 68.73879841076571 -1.8940400582616852 -0.7646210012844157 6.494910124695634 -8.570979846980038
